<svg width="3463" height="933" viewBox="0 0 3463 933" fill="none" xmlns="http://www.w3.org/2000/svg">
<ellipse cx="260" cy="496.5" rx="260" ry="260.5" fill="white"/>
<ellipse cx="678" cy="507.5" rx="133" ry="259.5" fill="white"/>
<ellipse cx="881" cy="497" rx="47" ry="224" fill="white"/>
<path d="M1520.1 261.4V275.4C1505.17 277.267 1493.97 281.233 1486.5 287.3C1479.03 292.9 1473.9 302 1471.1 314.6C1468.77 327.2 1467.6 344.933 1467.6 367.8V758.4C1462 757.933 1456.17 757.7 1450.1 757.7C1444.5 757.7 1438.43 757.933 1431.9 758.4L1128.1 373.4V642.2C1128.1 667.867 1129.5 687.7 1132.3 701.7C1135.1 715.233 1141.17 725.033 1150.5 731.1C1160.3 736.7 1175.47 740.667 1196 743V757C1187.13 756.067 1175.47 755.6 1161 755.6C1146.53 755.133 1133 754.9 1120.4 754.9C1109.67 754.9 1098.7 755.133 1087.5 755.6C1076.3 755.6 1066.97 756.067 1059.5 757V743C1074.43 740.667 1085.63 736.7 1093.1 731.1C1100.57 725.5 1105.47 716.4 1107.8 703.8C1110.6 690.733 1112 673 1112 650.6V335.6C1112 318.333 1110.6 305.733 1107.8 297.8C1105.47 289.4 1100.33 283.8 1092.4 281C1084.93 277.733 1073.97 275.867 1059.5 275.4V261.4C1066.97 261.867 1076.3 262.333 1087.5 262.8C1098.7 263.267 1109.67 263.5 1120.4 263.5C1131.6 263.5 1142.33 263.267 1152.6 262.8C1162.87 262.333 1172.2 261.867 1180.6 261.4L1451.5 595.3V376.2C1451.5 350.533 1450.1 330.933 1447.3 317.4C1444.5 303.4 1438.2 293.367 1428.4 287.3C1419.07 281.233 1404.13 277.267 1383.6 275.4V261.4C1392.47 261.867 1404.13 262.333 1418.6 262.8C1433.07 263.267 1446.6 263.5 1459.2 263.5C1470.4 263.5 1481.37 263.267 1492.1 262.8C1503.3 262.333 1512.63 261.867 1520.1 261.4ZM1723.9 385.3C1757.97 385.3 1787.84 391.6 1813.5 404.2C1839.17 416.8 1859.24 437.1 1873.7 465.1C1888.17 493.1 1895.4 530.2 1895.4 576.4C1895.4 622.6 1888.17 659.7 1873.7 687.7C1859.24 715.233 1839.17 735.3 1813.5 747.9C1787.84 760.5 1757.97 766.8 1723.9 766.8C1690.77 766.8 1661.14 760.5 1635 747.9C1609.34 735.3 1589.04 715.233 1574.1 687.7C1559.64 659.7 1552.4 622.6 1552.4 576.4C1552.4 530.2 1559.64 493.1 1574.1 465.1C1589.04 437.1 1609.34 416.8 1635 404.2C1661.14 391.6 1690.77 385.3 1723.9 385.3ZM1723.9 399.3C1705.24 399.3 1689.6 413.3 1677 441.3C1664.4 468.833 1658.1 513.867 1658.1 576.4C1658.1 638.933 1664.4 683.967 1677 711.5C1689.6 739.033 1705.24 752.8 1723.9 752.8C1743.04 752.8 1758.67 739.033 1770.8 711.5C1783.4 683.967 1789.7 638.933 1789.7 576.4C1789.7 513.867 1783.4 468.833 1770.8 441.3C1758.67 413.3 1743.04 399.3 1723.9 399.3ZM2179.9 385.3C2194.84 385.3 2206.97 388.567 2216.3 395.1C2225.64 401.167 2232.4 409.1 2236.6 418.9C2241.27 428.7 2243.6 438.967 2243.6 449.7C2243.6 466.967 2238.47 481.2 2228.2 492.4C2218.4 503.133 2205.34 508.5 2189 508.5C2172.67 508.5 2159.84 504.533 2150.5 496.6C2141.64 488.2 2137.2 477.233 2137.2 463.7C2137.2 450.633 2140 439.9 2145.6 431.5C2151.67 422.633 2159.14 415.167 2168 409.1C2161.47 407.233 2154.94 407.467 2148.4 409.8C2139.54 411.2 2131.14 414.933 2123.2 421C2115.27 426.6 2108.5 433.833 2102.9 442.7C2097.3 451.1 2092.87 460.433 2089.6 470.7C2086.34 480.5 2084.7 490.067 2084.7 499.4V684.9C2084.7 707.3 2090.07 722.467 2100.8 730.4C2112 738.333 2128.57 742.3 2150.5 742.3V757C2139.77 756.533 2124.14 756.067 2103.6 755.6C2083.07 754.667 2061.6 754.2 2039.2 754.2C2020.54 754.2 2001.64 754.667 1982.5 755.6C1963.37 756.067 1948.9 756.533 1939.1 757V742.3C1955.44 742.3 1966.87 738.8 1973.4 731.8C1980.4 724.8 1983.9 711.5 1983.9 691.9V471.4C1983.9 450.4 1980.64 435 1974.1 425.2C1968.04 414.933 1956.37 409.8 1939.1 409.8V395.1C1954.04 396.5 1968.5 397.2 1982.5 397.2C2002.1 397.2 2020.3 396.5 2037.1 395.1C2054.37 393.233 2070.24 390.667 2084.7 387.4V452.5C2090.3 439.9 2097.77 428.467 2107.1 418.2C2116.44 407.933 2127.17 400 2139.3 394.4C2151.44 388.333 2164.97 385.3 2179.9 385.3ZM2519.96 385.3C2539.56 385.3 2555.43 387.867 2567.56 393C2579.7 397.667 2589.5 404.2 2596.96 412.6C2604.43 421.467 2609.8 433.133 2613.06 447.6C2616.33 461.6 2617.96 480.267 2617.96 503.6V691.9C2617.96 711.5 2621 724.8 2627.06 731.8C2633.13 738.8 2643.63 742.3 2658.56 742.3V757C2650.16 756.533 2637.33 756.067 2620.06 755.6C2603.26 754.667 2586.7 754.2 2570.36 754.2C2553.56 754.2 2537 754.667 2520.66 755.6C2504.33 756.067 2491.96 756.533 2483.56 757V742.3C2496.16 742.3 2504.8 738.8 2509.46 731.8C2514.6 724.8 2517.16 711.5 2517.16 691.9V474.2C2517.16 462.533 2516.23 452.5 2514.36 444.1C2512.5 435.233 2508.76 428.467 2503.16 423.8C2498.03 418.667 2490.1 416.1 2479.36 416.1C2467.23 416.1 2456.03 419.6 2445.76 426.6C2435.5 433.6 2427.1 443.4 2420.56 456C2414.5 468.133 2411.46 481.9 2411.46 497.3V691.9C2411.46 711.5 2414.03 724.8 2419.16 731.8C2424.3 738.8 2432.93 742.3 2445.06 742.3V757C2437.6 756.533 2425.93 756.067 2410.06 755.6C2394.66 754.667 2378.8 754.2 2362.46 754.2C2344.73 754.2 2326.53 754.667 2307.86 755.6C2289.2 756.067 2275.2 756.533 2265.86 757V742.3C2282.2 742.3 2293.63 738.8 2300.16 731.8C2307.16 724.8 2310.66 711.5 2310.66 691.9V471.4C2310.66 450.4 2307.4 435 2300.86 425.2C2294.8 414.933 2283.13 409.8 2265.86 409.8V395.1C2280.8 396.5 2295.26 397.2 2309.26 397.2C2328.86 397.2 2347.06 396.5 2363.86 395.1C2381.13 393.233 2397 390.667 2411.46 387.4V450.4C2422.66 427.067 2437.83 410.5 2456.96 400.7C2476.1 390.433 2497.1 385.3 2519.96 385.3ZM2730.66 385.3C2750.26 385.3 2766.13 387.867 2778.26 393C2790.4 397.667 2800.2 404.2 2807.66 412.6C2815.13 421.467 2820.5 433.133 2823.76 447.6C2827.03 461.6 2828.66 480.267 2828.66 503.6V691.9C2828.66 711.5 2831.93 724.8 2838.46 731.8C2845.46 738.8 2857.13 742.3 2873.46 742.3V757C2864.6 756.533 2851.3 756.067 2833.56 755.6C2815.83 754.667 2798.33 754.2 2781.06 754.2C2764.26 754.2 2747.7 754.667 2731.36 755.6C2715.03 756.067 2702.66 756.533 2694.26 757V742.3C2706.86 742.3 2715.5 738.8 2720.16 731.8C2725.3 724.8 2727.86 711.5 2727.86 691.9V474.2C2727.86 462.533 2726.7 452.5 2724.36 444.1C2722.5 435.233 2718.53 428.467 2712.46 423.8C2706.86 418.667 2698 416.1 2685.86 416.1C2673.73 416.1 2662.53 419.833 2652.26 427.3C2642 434.767 2633.6 444.8 2627.06 457.4C2621 470 2617.73 484 2617.26 499.4L2613.76 456.7C2626.36 428.7 2642.93 409.8 2663.46 400C2684.46 390.2 2706.86 385.3 2730.66 385.3ZM2996.15 761.9C2975.15 761.9 2957.65 757.933 2943.65 750C2929.65 742.067 2919.39 731.567 2912.85 718.5C2906.32 704.967 2903.05 690.267 2903.05 674.4C2903.05 654.333 2907.49 638 2916.35 625.4C2925.69 612.8 2937.59 602.533 2952.05 594.6C2966.52 586.667 2981.69 580.133 2997.55 575C3013.89 569.867 3029.29 564.967 3043.75 560.3C3058.69 555.167 3070.59 549.333 3079.45 542.8C3088.79 535.8 3093.45 526.933 3093.45 516.2V461.6C3093.45 449.467 3091.35 438.733 3087.15 429.4C3083.42 419.6 3077.35 412.133 3068.95 407C3061.02 401.867 3050.52 399.3 3037.45 399.3C3028.12 399.3 3018.79 400.7 3009.45 403.5C3000.12 405.833 2992.42 410.033 2986.35 416.1C2999.42 420.767 3009.45 428 3016.45 437.8C3023.92 447.133 3027.65 457.867 3027.65 470C3027.65 485.867 3022.05 498.467 3010.85 507.8C3000.12 517.133 2987.29 521.8 2972.35 521.8C2955.55 521.8 2942.72 516.667 2933.85 506.4C2925.45 495.667 2921.25 482.833 2921.25 467.9C2921.25 454.367 2924.52 443.167 2931.05 434.3C2938.05 425.433 2947.62 417.033 2959.75 409.1C2972.82 401.633 2988.45 395.8 3006.65 391.6C3025.32 387.4 3045.39 385.3 3066.85 385.3C3088.32 385.3 3107.69 387.633 3124.95 392.3C3142.22 396.5 3156.69 404.433 3168.35 416.1C3179.09 426.833 3186.09 440.133 3189.35 456C3192.62 471.4 3194.25 491 3194.25 514.8V705.2C3194.25 716.867 3195.42 725.033 3197.75 729.7C3200.09 733.9 3204.05 736 3209.65 736C3213.85 736 3217.82 734.833 3221.55 732.5C3225.75 730.167 3230.19 727.367 3234.85 724.1L3241.85 736C3232.05 744.4 3220.62 750.933 3207.55 755.6C3194.95 759.8 3180.72 761.9 3164.85 761.9C3147.59 761.9 3133.82 759.567 3123.55 754.9C3113.29 749.767 3105.82 743 3101.15 734.6C3096.95 726.2 3094.85 716.4 3094.85 705.2C3083.65 722.933 3070.12 736.933 3054.25 747.2C3038.39 757 3019.02 761.9 2996.15 761.9ZM3045.85 717.1C3055.19 717.1 3063.59 715 3071.05 710.8C3078.99 706.133 3086.45 698.667 3093.45 688.4V544.9C3089.25 551.9 3083.42 558.2 3075.95 563.8C3068.49 569.4 3060.55 575.233 3052.15 581.3C3043.75 586.9 3035.59 593.2 3027.65 600.2C3020.19 607.2 3014.12 615.833 3009.45 626.1C3004.79 636.367 3002.45 648.733 3002.45 663.2C3002.45 681.4 3006.42 694.933 3014.35 703.8C3022.29 712.667 3032.79 717.1 3045.85 717.1ZM3404.66 208.9V691.9C3404.66 711.5 3407.93 724.8 3414.46 731.8C3421.46 738.8 3433.13 742.3 3449.46 742.3V757C3440.59 756.533 3427.29 756.067 3409.56 755.6C3391.83 754.667 3373.86 754.2 3355.66 754.2C3337.46 754.2 3319.03 754.667 3300.36 755.6C3282.16 756.067 3268.39 756.533 3259.06 757V742.3C3275.39 742.3 3286.83 738.8 3293.36 731.8C3300.36 724.8 3303.86 711.5 3303.86 691.9V292.9C3303.86 271.9 3300.59 256.5 3294.06 246.7C3287.99 236.433 3276.33 231.3 3259.06 231.3V216.6C3273.99 218 3288.46 218.7 3302.46 218.7C3321.59 218.7 3339.79 218 3357.06 216.6C3374.33 214.733 3390.19 212.167 3404.66 208.9Z" fill="white"/>
</svg>
